<?xml version="1.0" encoding="UTF-8"?>
<svg fill="white" xmlns="http://www.w3.org/2000/svg" xmlns:xlink="http://www.w3.org/1999/xlink" width="512" height="512" viewBox="0 0 60 60" version="1.1"><!-- Generator: Sketch 51.3 (57544) - http://www.bohemiancoding.com/sketch --><title>020 - Canvas</title><desc>Created with Sketch.</desc><defs/><g fill="white" id="Page-1" stroke="none" stroke-width="1" fill-rule="evenodd"><g id="020---Canvas" fill-rule="nonzero"><path d="M58,38 L57,38 L57,9 C57,7.34314575 55.6568542,6 54,6 L39.577,6 C38.7825661,4.17971983 36.9860867,3.0022153 35,3 L33.858,3 C33.4089765,1.23579763 31.8204483,0.00093533392 30,0.00093533392 C28.1795517,0.00093533392 26.5910235,1.23579763 26.142,3 L25,3 C23.0139382,3.0031152 21.2176137,4.18026103 20.422,6 L6,6 C4.34314575,6 3,7.34314575 3,9 L3,38 L2,38 C0.8954305,38 1.3527075e-16,38.8954305 0,40 C0.00330737898,43.3123376 2.68766243,45.9966926 6,46 L11.573,46 L7.418,57.436 C7.24026156,58.0406979 7.35796769,58.6938006 7.73563058,59.1984007 C8.11329347,59.7030008 8.70672186,60.0000539 9.337,60 L14.252,60 C15.1177376,60.0031197 15.8860584,59.4458849 16.152,58.622 L20.7,46 L26,46 L26,58 C26,59.1045695 26.8954305,60 28,60 L32,60 C33.1045695,60 34,59.1045695 34,58 L34,46 L39.3,46 L43.83,58.564 C44.0827111,59.4132523 44.8619519,59.9966672 45.748,60 L50.663,60 C51.2930748,60.0023829 51.8868615,59.7054895 52.263,59.2 C52.652561,58.6772573 52.7643959,57.9980462 52.563,57.378 L48.427,46 L54,46 C57.3123376,45.9966926 59.9966926,43.3123376 60,40 C60,38.8954305 59.1045695,38 58,38 Z M11,22 C10.0235612,21.9986203 9.19085448,21.2923618 9.03011214,20.3292437 C8.8693698,19.3661256 9.42758645,18.427725 10.3506542,18.1093217 C11.2737219,17.7909185 12.2917726,18.1856009 12.759,19.043 C13.0205068,19.5295629 13.6269371,19.7120068 14.1135,19.4505 C14.6000629,19.1889932 14.7825068,18.5825629 14.521,18.096 C14.0368291,17.2023225 13.22772,16.5289003 12.261,16.215 C12.7947345,14.8557018 14.1181389,13.9722518 15.5781943,14.0005786 C17.0382497,14.0289053 18.3263913,14.9630223 18.807,16.342 C18.8236828,16.3766018 18.8427278,16.4100141 18.864,16.442 C18.8999926,16.5264329 18.947438,16.6055087 19.005,16.677 C19.045297,16.7141048 19.0888002,16.7475688 19.135,16.777 C19.1884215,16.8265812 19.2471035,16.8701736 19.31,16.907 C19.3869906,16.9389728 19.4675813,16.9614711 19.55,16.974 C19.5917798,16.9886964 19.6345551,17.0003928 19.678,17.009 C20.9518023,17.1053993 21.9480272,18.146608 21.9881124,19.4234236 C22.0281976,20.7002393 21.0992469,21.8018882 19.834,21.978 C19.7234893,21.9947667 19.6117552,22.0021265 19.5,22 L11,22 Z M19.5,24 C19.7197334,24.0021 19.9392314,23.9850354 20.156,23.949 C21.4032037,23.7567108 22.5123565,23.049567 23.213,22 L26.3,25.581 L25.53,27.489 L24.5,26.8 C24.0276044,26.4791185 23.4400749,26.3767653 22.887,26.519 C22.3263235,26.6637404 21.8549562,27.0425827 21.593,27.559 L21.002,28.759 L20.402,27.552 C20.1435189,27.0420973 19.6791911,26.6671796 19.1262761,26.5219271 C18.5733612,26.3766747 17.9847179,26.4749737 17.509,26.792 L16.386,27.539 L15.662,26.1 L17.349,24 L19.5,24 Z M14.283,27.812 L14.599,28.444 C14.8610244,28.957748 15.3312919,29.3340348 15.89,29.477 C16.4377722,29.6204143 17.0207756,29.5209394 17.49,29.204 L18.613,28.457 L19.213,29.646 C19.5453052,30.3285158 20.2369616,30.7625235 20.9960724,30.7648605 C21.7551831,30.7671976 22.4494987,30.3374568 22.786,29.657 L23.386,28.457 L24.421,29.151 C24.923525,29.4832803 25.5486881,29.5723753 26.1240308,29.393707 C26.6993735,29.2150388 27.1640963,28.7874882 27.39,28.229 L27.768,27.286 L33.244,33.649 C33.4694083,33.9426766 33.8386206,34.087793 34.2036687,34.0261915 C34.5687167,33.9645899 34.8698631,33.7063509 34.9864182,33.3549683 C35.1029732,33.0035856 35.0158636,32.6165606 34.76,32.349 L33.5,30.881 L34.932,29.273 C35.1935993,29.7735232 35.6560182,30.1389178 36.2034671,30.2776888 C36.750916,30.4164599 37.3315579,30.3154674 37.8,30 L38.615,29.456 L39.338,30.902 C39.6518385,31.5435598 40.2870132,31.9662453 41,32.008 C41.043,32.008 41.087,32.008 41.13,32.008 C41.797972,32.0101765 42.4219209,31.6750719 42.789,31.117 L43.278,30.383 L44.422,31.145 C44.9104832,31.4724576 45.5187888,31.5670861 46.0836608,31.4034893 C46.6485329,31.2398925 47.112118,30.8348257 47.35,30.297 L53.583,38 L6.088,38 L14.283,27.812 Z M36.517,27.488 L40.185,23.371 C40.364557,23.1178529 40.6634835,22.9771146 40.973,23 C41.2864165,23.005376 41.57965,23.1556859 41.767,23.407 L45.914,28.529 L45.53,29.485 L44.386,28.722 C43.4663881,28.1126133 42.2272389,28.3606219 41.613,29.277 L41.124,30.012 L40.4,28.565 C40.1433779,28.0514914 39.678473,27.6730115 39.1235894,27.5258716 C38.5687057,27.3787318 37.9773486,27.4771202 37.5,27.796 L36.685,28.34 L36.517,27.488 Z M25,5 L27,5 C27.5522847,5 28,4.55228475 28,4 C28,2.8954305 28.8954305,2 30,2 C31.1045695,2 32,2.8954305 32,4 C32,4.55228475 32.4477153,5 33,5 L35,5 C36.6545758,5.00548786 37.9945121,6.34542423 38,8 C38,8.55228475 37.5522847,9 37,9 L23,9 C22.4477153,9 22,8.55228475 22,8 C22.0060328,6.34565107 23.3456511,5.00603283 25,5 Z M6,8 L20,8 C20,9.65685425 21.3431458,11 23,11 L37,11 C38.6568542,11 40,9.65685425 40,8 L54,8 C54.5522847,8 55,8.44771525 55,9 L55,36.571 L43.335,22.171 C42.7778352,21.4427484 41.9168765,21.0109785 41,21 L40.96,21 C40.0707795,20.9946617 39.2262715,21.3893774 38.66,22.075 L32.178,29.352 L23.97,19.815 C23.978,19.709 23.999,19.607 23.999,19.5 C23.9876876,17.3865934 22.5096781,15.5647544 20.444,15.118 C19.4538219,13.0442298 17.2747471,11.8087273 14.986801,12.0238506 C12.6988548,12.2389738 10.7882705,13.8590048 10.202,16.081 C8.19083671,16.4920048 6.81723774,18.3586643 7.02304968,20.4010511 C7.22886161,22.443438 8.94726999,23.998515 11,24 L14.782,24 L13.721,25.32 L5,36.161 L5,9 C5,8.44771525 5.44771525,8 6,8 Z M14.252,58 L9.316,58.06 L13.7,46 L18.576,46 L14.252,58 Z M32,58 L28,58 L28,46 L32,46 L32,58 Z M50.663,58 L45.729,57.943 L41.424,46 L46.3,46 L50.663,58 Z M54,44 L6,44 C3.790861,44 2,42.209139 2,40 L58,40 C58,42.209139 56.209139,44 54,44 Z" id="Shape"/><circle id="Oval" cx="30" cy="6" r="1"/><path d="M47.5,20 C49.9852814,20 52,17.9852814 52,15.5 C52,13.0147186 49.9852814,11 47.5,11 C45.0147186,11 43,13.0147186 43,15.5 C43.0027556,17.9841391 45.0158609,19.9972444 47.5,20 Z M47.5,13 C48.8807119,13 50,14.1192881 50,15.5 C50,16.8807119 48.8807119,18 47.5,18 C46.1192881,18 45,16.8807119 45,15.5 C45,14.1192881 46.1192881,13 47.5,13 Z" id="Shape"/><path d="M29.8,19.841 C30.219,19.282 30.625,18.967 30.884,19.003 C31.301,19.057 31.851,19.872 32.072,20.415 L32.079,20.426 C32.0854073,20.4380122 32.0924162,20.4496937 32.1,20.461 C32.1444001,20.5556693 32.2034596,20.6427399 32.275,20.719 C32.2961134,20.7406342 32.3184856,20.761003 32.342,20.78 C32.4139768,20.8439456 32.4948111,20.8971615 32.582,20.938 C32.599,20.946 32.609,20.96 32.626,20.967 C32.643,20.974 32.646,20.967 32.656,20.973 C32.7657573,21.0159126 32.8821837,21.0392655 33,21.042 C33.016,21.042 33.031,21.033 33.047,21.033 C33.1428421,21.0284229 33.2375047,21.0098946 33.328,20.978 C33.343,20.973 33.357,20.978 33.371,20.97 C33.385,20.962 33.411,20.94 33.435,20.928 C33.5096124,20.8913053 33.5794631,20.8456337 33.643,20.792 C33.6730325,20.767901 33.7017411,20.7421968 33.729,20.715 C33.7953179,20.6428751 33.8505845,20.5613232 33.893,20.473 C33.901,20.457 33.914,20.444 33.921,20.427 L33.928,20.416 C34.148,19.872 34.699,19.057 35.116,19.003 C35.368,18.964 35.78,19.281 36.2,19.841 C36.4143594,20.1268125 36.7649147,20.2765547 37.1196152,20.2338203 C37.4743158,20.1910859 37.7792741,19.9623672 37.9196152,19.6338203 C38.0599564,19.3052734 38.0143594,18.9268125 37.8,18.641 C37.1993377,17.5908154 36.0615763,16.9649887 34.853,17.02 C34.1158633,17.1532714 33.4550453,17.5569659 33,18.152 C32.5449547,17.5569659 31.8841367,17.1532714 31.147,17.02 C29.9380996,16.9635945 28.7996583,17.5897952 28.2,18.641 C27.8686292,19.0828278 27.9581722,19.7096292 28.4,20.041 C28.8418278,20.3723708 29.4686292,20.2828278 29.8,19.841 Z" id="Shape"/></g></g></svg>
